<mxfile host="app.diagrams.net" modified="2024-04-26T21:29:00.265Z" agent="Mozilla/5.0 (Macintosh; Intel Mac OS X 10_15_7) AppleWebKit/605.1.15 (KHTML, like Gecko) Version/17.4.1 Safari/605.1.15" etag="l7Y-WYDsd-n6W8sjocTk" version="24.2.8" type="google">
  <diagram name="Sayfa -1" id="r2BsILLz-oD7V9Cix9_X">
    <mxGraphModel grid="1" page="1" gridSize="10" guides="1" tooltips="1" connect="1" arrows="1" fold="1" pageScale="1" pageWidth="827" pageHeight="1169" math="0" shadow="0">
      <root>
        <mxCell id="0" />
        <mxCell id="1" parent="0" />
        <mxCell id="N3Wy1tn6dpJryKBiZyQi-9" style="edgeStyle=orthogonalEdgeStyle;rounded=0;orthogonalLoop=1;jettySize=auto;html=1;entryX=0;entryY=0.5;entryDx=0;entryDy=0;" edge="1" parent="1" source="N3Wy1tn6dpJryKBiZyQi-1" target="N3Wy1tn6dpJryKBiZyQi-3">
          <mxGeometry relative="1" as="geometry" />
        </mxCell>
        <mxCell id="N3Wy1tn6dpJryKBiZyQi-1" value="x" style="ellipse;whiteSpace=wrap;html=1;aspect=fixed;" vertex="1" parent="1">
          <mxGeometry x="190" y="120" width="40" height="40" as="geometry" />
        </mxCell>
        <mxCell id="N3Wy1tn6dpJryKBiZyQi-2" value="&lt;font style=&quot;font-size: 10px;&quot;&gt;f(x) = x&lt;/font&gt;" style="whiteSpace=wrap;html=1;aspect=fixed;" vertex="1" parent="1">
          <mxGeometry x="370" y="120" width="40" height="40" as="geometry" />
        </mxCell>
        <mxCell id="N3Wy1tn6dpJryKBiZyQi-5" value="" style="edgeStyle=orthogonalEdgeStyle;rounded=0;orthogonalLoop=1;jettySize=auto;html=1;" edge="1" parent="1" source="N3Wy1tn6dpJryKBiZyQi-3" target="N3Wy1tn6dpJryKBiZyQi-2">
          <mxGeometry relative="1" as="geometry" />
        </mxCell>
        <mxCell id="N3Wy1tn6dpJryKBiZyQi-3" value="" style="ellipse;whiteSpace=wrap;html=1;aspect=fixed;" vertex="1" parent="1">
          <mxGeometry x="280" y="120" width="40" height="40" as="geometry" />
        </mxCell>
        <mxCell id="N3Wy1tn6dpJryKBiZyQi-7" value="" style="shape=image;verticalLabelPosition=bottom;labelBackgroundColor=default;verticalAlign=top;aspect=fixed;imageAspect=0;image=data:image/png,iVBORw0KGgoAAAANSUhEUgAAAPoAAAD6CAYAAACI7Fo9AAAIZklEQVR42u3dcaheZR0H8K+3cRlzjjVsLlhLxhCRWEPEP8SWhISIyAiREIkxxEZYicgaEcLwDwkb+0NExCSkZEhJlJiFlJiEiJgtsSG2wkaamtiSNdaYtz/OldT7vu85955z3/c5vp8PHC7c3XsHX87vPc8553l+TwIAAAAAAAAAAAAAAAAAAAAAAAAAAAAAAAAAAAAAAAAAAAAAAAAAAAAAAAAAAAAAAAAAAAAAAAAAADA1zhBBrd1JPpVkZsTPzHT0/XH9Tt///+eTfM+pSZeuTDLnKOp42mm5ODMiqPWLJD8SQ1HWisDQfTmcneTFJOtFUYQ3kpwjBlf0rv0zyTfF4Iruij4dHklylRiKcGaS/4jBFX05fDXJv8RQhHUiUOjL5dUk3xKD4buh+3R4IsllLf/G95P88EMfuHVfF/OzXf7uUv/GbJJPJtmQ6kHmtg4L9PNJfutUZDltTnI87d4FH0uyccpyWzH/Abk/ySst89vhNGQcbk37iR+PTHF+s0luSfLWErPb6RRkXFenZzso9uumPMd1Se5fQm63OAUZl88kOdmy0N9MNSFn2u1JcnoRud0uMsZpXwdX9YNiTJJcu4gPzrvExbjvNV/ooNhNxKnc2DCvB0XFuF28yGHnoOPvSdaIMklyX4O8HhUTk3Cgg6v6fWJMkqxM/YNOS1WZiFVJjnRQ7F8QZZJqcs2oUdJLImJSLu+g0I/Mf2iQPDAip9fFQ+n3l3XHATEmqWYODpuBeFI8TNLaVA/W2hT66VQP+EjuGJHTavEwSTs6uKq/mOrV3bTbNOJefaN4mLSHOij2fWJMUr1KG5TPVtEwaeuz9AUb778PdTIPHyFtFw0l+EoHV/VnUy2gmWYrhjz3sFSVYjzWQbHvEWPuGZDLLrFQik1J3mlZ6MeTbJnyHK+OpaoU7msdXNWfzHT3+FudhSvbLFWlKDNJnuqg2HdPeY5PfCiPu51alOa8JCeiz1wbNyd5LVW/uSOpes9BcfZ2cFV/TIxQthWptvxtW+zXixLKti3JqbTvM2fDRxr7mAjG7h+pGit8rsXfWJXk00l+Ik4o18okhzsYwpsZBoW7NN30mbMHGYbuBftbkk+k3brzs+bv1X8uTijX6rTfg2wuVQsroGBXdFDof41uKxi6F+3PqXZn/WyLv7F2vtB/KU4o19mpupq27TN3iSihbNd0MIQ/nOrVHRi6F+pPqWbNnd9yZDCT5DfihHJtSPJ2y6v6qfkPDKBguzoYwj8XfeageL/uoNj3ihHKtjnDtyJqepxoeb8PjMHNHVzVn8p095mD4s0keaaDYr9JlFC2C7Kw8+lij3eSnCtKKNttHVzVfyVGKNtskkMdFPtOUULZLk77PnNvpZqQAxTszg6u6g+LEcq2KsnLHRT7NaKEsl2W9n3mXkuyTpRQtns7uKo/IEYo29okRzso9itECWW7uoNCfyX6zEHxDnZQ7LYdhsKtT7UHW9s+c5eKEsp2XQdX9ZeizxwU79EOiv27YoSybUxyrGWh/1SMUL7dLYr8xSRrRAjlm0ny5BKK/O0k54kP+mNLqj5xi3nibtIM9NCeRRT6HnFBP61I9bqsrsgfFBX011WpX932XKolr0APXZD612yvJ9kkKuindalvSnEyyXZRQX/vy5ts4bRbVNBfdzUo8nvFBP11Y5ptyzQrKuin7anfxeVoquWsQA+dm/q16CeSXCQq6KfVSV5oMGS/XlTQTzOplpTWFfmdooL+uj3NNlS0Jzr01JcbFPnLsTkD9NaFSY7XFPmxVNNggR7akPoNG04n2SEq6KeVSZ5uMGS/TVTQXz+IrZDhI+3WBkX+QmyrBL11ReobSLyVZLOooJ/OT9WddVSRn0pyuaign5o0kJhLcouooJ9WJHm8QZE/ICrorwMNivzZ2BDxPRek2jr6/ce5YqFkNzQo8tdS7bPG4A/G0/EGgoJdmvoGEieTXCKqD9zmvJ6F2z9DkTYNOGEHHTeI6gN2DMjooFgo0eokhxoU+d2iWuCx2GKKnni4QZE/OT9M5f82Z/BkIvMKKM6+BkX+SpKzRbXA/iF5yYqiXJP66a3Hk2wT1QJrM3jbqaOioSTbUt9AYi5VNxkWGrYt9M9EQynWzw/H64r8DlENtDrD31DsEw8lmE3yuwZF/mg0dhxm74jcdNehCPc3KPKX5u9BWWhdqmW5w7KzFTQTd3ODIj+Wankqg92T0evyYaK+mGrteF1jx6tENdTFGf2W4nERMUnnpb6BxFySb4tqqJVJDseuNBRq7fw9d12R/1hUI93XIMPrxMQkzGTwXOwPH4eSrBLXUDc1yHDOsw0mZX+Dk/PNaJIwyq7Uzx58bwah15GM3c4GJ+epJJeJaug9+YGGRT6XanMLGKtLkpxocHJ+Q1QDXZT6B2+W8DJRG1O1eqo7Me8X1QesSHJ1qhmBpxdZ5BpyMFarkjzXcJg5K65sSbVoZ3/qN4+sOy4UZzNniKC1h5JcW/Mz76ZaePHqgH8b9TBppqPvj+t33v/9M1O9Zlwz/3Vdkq3pbprvf5OcNf8VltV3Wl6RHEs/Djn9mvNqYum+FMsjJ+n3IlDoy21rqh1T5Dc5z4tAoS+n9ak6mtgsYLL+IILmPIxbnNlUq6W2i2Ki3k3y8ST/FoUr+nK4S5EX4S+KXKEvl5uS3CiGIngQp9CXxeWp5mBTBg/iFHrntqSaFGPHlHJ4ELdIHsaNtibJM7HmuTTnJHlDDK7oXWVzUJEX51VFrtC7dEeSK8Vg2P5R4L5z+JD9aJKvi6I4fxQBAAAAAAAAAAAAAAAAAAAAAAAAAAAAAAAAAAAAAAAAAAAAAAAAAAAAAAAAAAAAAAAAAAAAAAAAAAAAAAAAAADAGPwPMlCJqKHQRpsAAAAASUVORK5CYII=;" vertex="1" parent="1">
          <mxGeometry x="285" y="125" width="30" height="30" as="geometry" />
        </mxCell>
        <mxCell id="N3Wy1tn6dpJryKBiZyQi-13" value="" style="edgeStyle=orthogonalEdgeStyle;rounded=0;orthogonalLoop=1;jettySize=auto;html=1;entryX=0.5;entryY=0;entryDx=0;entryDy=0;" edge="1" parent="1" source="N3Wy1tn6dpJryKBiZyQi-8" target="N3Wy1tn6dpJryKBiZyQi-3">
          <mxGeometry relative="1" as="geometry">
            <mxPoint x="320" y="110" as="targetPoint" />
            <Array as="points" />
          </mxGeometry>
        </mxCell>
        <mxCell id="N3Wy1tn6dpJryKBiZyQi-8" value="+1" style="ellipse;whiteSpace=wrap;html=1;aspect=fixed;" vertex="1" parent="1">
          <mxGeometry x="280" y="40" width="40" height="40" as="geometry" />
        </mxCell>
        <mxCell id="N3Wy1tn6dpJryKBiZyQi-15" value="" style="edgeStyle=orthogonalEdgeStyle;rounded=0;orthogonalLoop=1;jettySize=auto;html=1;" edge="1" parent="1">
          <mxGeometry relative="1" as="geometry">
            <mxPoint x="410" y="139.76" as="sourcePoint" />
            <mxPoint x="460" y="139.76" as="targetPoint" />
          </mxGeometry>
        </mxCell>
        <mxCell id="N3Wy1tn6dpJryKBiZyQi-16" value="y&lt;font size=&quot;1&quot;&gt;&lt;sup&gt;pred&lt;/sup&gt;&lt;/font&gt;" style="ellipse;whiteSpace=wrap;html=1;aspect=fixed;" vertex="1" parent="1">
          <mxGeometry x="460" y="120" width="40" height="40" as="geometry" />
        </mxCell>
        <mxCell id="N3Wy1tn6dpJryKBiZyQi-19" value="x" style="ellipse;whiteSpace=wrap;html=1;aspect=fixed;" vertex="1" parent="1">
          <mxGeometry x="190" y="360" width="40" height="40" as="geometry" />
        </mxCell>
        <mxCell id="N3Wy1tn6dpJryKBiZyQi-20" value="&lt;font style=&quot;font-size: 9px;&quot;&gt;1/(1+e&lt;sup&gt;-x&lt;/sup&gt;)&lt;/font&gt;" style="whiteSpace=wrap;html=1;aspect=fixed;" vertex="1" parent="1">
          <mxGeometry x="410" y="280" width="40" height="40" as="geometry" />
        </mxCell>
        <mxCell id="N3Wy1tn6dpJryKBiZyQi-21" value="" style="edgeStyle=orthogonalEdgeStyle;rounded=0;orthogonalLoop=1;jettySize=auto;html=1;" edge="1" parent="1" source="N3Wy1tn6dpJryKBiZyQi-22" target="N3Wy1tn6dpJryKBiZyQi-20">
          <mxGeometry relative="1" as="geometry" />
        </mxCell>
        <mxCell id="N3Wy1tn6dpJryKBiZyQi-22" value="" style="ellipse;whiteSpace=wrap;html=1;aspect=fixed;" vertex="1" parent="1">
          <mxGeometry x="310" y="280" width="40" height="40" as="geometry" />
        </mxCell>
        <mxCell id="N3Wy1tn6dpJryKBiZyQi-23" value="" style="shape=image;verticalLabelPosition=bottom;labelBackgroundColor=default;verticalAlign=top;aspect=fixed;imageAspect=0;image=data:image/png,iVBORw0KGgoAAAANSUhEUgAAAPoAAAD6CAYAAACI7Fo9AAAIZklEQVR42u3dcaheZR0H8K+3cRlzjjVsLlhLxhCRWEPEP8SWhISIyAiREIkxxEZYicgaEcLwDwkb+0NExCSkZEhJlJiFlJiEiJgtsSG2wkaamtiSNdaYtz/OldT7vu85955z3/c5vp8PHC7c3XsHX87vPc8553l+TwIAAAAAAAAAAAAAAAAAAAAAAAAAAAAAAAAAAAAAAAAAAAAAAAAAAAAAAAAAAAAAAAAAAAAAAAAAADA1zhBBrd1JPpVkZsTPzHT0/XH9Tt///+eTfM+pSZeuTDLnKOp42mm5ODMiqPWLJD8SQ1HWisDQfTmcneTFJOtFUYQ3kpwjBlf0rv0zyTfF4Iruij4dHklylRiKcGaS/4jBFX05fDXJv8RQhHUiUOjL5dUk3xKD4buh+3R4IsllLf/G95P88EMfuHVfF/OzXf7uUv/GbJJPJtmQ6kHmtg4L9PNJfutUZDltTnI87d4FH0uyccpyWzH/Abk/ySst89vhNGQcbk37iR+PTHF+s0luSfLWErPb6RRkXFenZzso9uumPMd1Se5fQm63OAUZl88kOdmy0N9MNSFn2u1JcnoRud0uMsZpXwdX9YNiTJJcu4gPzrvExbjvNV/ooNhNxKnc2DCvB0XFuF28yGHnoOPvSdaIMklyX4O8HhUTk3Cgg6v6fWJMkqxM/YNOS1WZiFVJjnRQ7F8QZZJqcs2oUdJLImJSLu+g0I/Mf2iQPDAip9fFQ+n3l3XHATEmqWYODpuBeFI8TNLaVA/W2hT66VQP+EjuGJHTavEwSTs6uKq/mOrV3bTbNOJefaN4mLSHOij2fWJMUr1KG5TPVtEwaeuz9AUb778PdTIPHyFtFw0l+EoHV/VnUy2gmWYrhjz3sFSVYjzWQbHvEWPuGZDLLrFQik1J3mlZ6MeTbJnyHK+OpaoU7msdXNWfzHT3+FudhSvbLFWlKDNJnuqg2HdPeY5PfCiPu51alOa8JCeiz1wbNyd5LVW/uSOpes9BcfZ2cFV/TIxQthWptvxtW+zXixLKti3JqbTvM2fDRxr7mAjG7h+pGit8rsXfWJXk00l+Ik4o18okhzsYwpsZBoW7NN30mbMHGYbuBftbkk+k3brzs+bv1X8uTijX6rTfg2wuVQsroGBXdFDof41uKxi6F+3PqXZn/WyLv7F2vtB/KU4o19mpupq27TN3iSihbNd0MIQ/nOrVHRi6F+pPqWbNnd9yZDCT5DfihHJtSPJ2y6v6qfkPDKBguzoYwj8XfeageL/uoNj3ihHKtjnDtyJqepxoeb8PjMHNHVzVn8p095mD4s0keaaDYr9JlFC2C7Kw8+lij3eSnCtKKNttHVzVfyVGKNtskkMdFPtOUULZLk77PnNvpZqQAxTszg6u6g+LEcq2KsnLHRT7NaKEsl2W9n3mXkuyTpRQtns7uKo/IEYo29okRzso9itECWW7uoNCfyX6zEHxDnZQ7LYdhsKtT7UHW9s+c5eKEsp2XQdX9ZeizxwU79EOiv27YoSybUxyrGWh/1SMUL7dLYr8xSRrRAjlm0ny5BKK/O0k54kP+mNLqj5xi3nibtIM9NCeRRT6HnFBP61I9bqsrsgfFBX011WpX932XKolr0APXZD612yvJ9kkKuindalvSnEyyXZRQX/vy5ts4bRbVNBfdzUo8nvFBP11Y5ptyzQrKuin7anfxeVoquWsQA+dm/q16CeSXCQq6KfVSV5oMGS/XlTQTzOplpTWFfmdooL+uj3NNlS0Jzr01JcbFPnLsTkD9NaFSY7XFPmxVNNggR7akPoNG04n2SEq6KeVSZ5uMGS/TVTQXz+IrZDhI+3WBkX+QmyrBL11ReobSLyVZLOooJ/OT9WddVSRn0pyuaign5o0kJhLcouooJ9WJHm8QZE/ICrorwMNivzZ2BDxPRek2jr6/ce5YqFkNzQo8tdS7bPG4A/G0/EGgoJdmvoGEieTXCKqD9zmvJ6F2z9DkTYNOGEHHTeI6gN2DMjooFgo0eokhxoU+d2iWuCx2GKKnni4QZE/OT9M5f82Z/BkIvMKKM6+BkX+SpKzRbXA/iF5yYqiXJP66a3Hk2wT1QJrM3jbqaOioSTbUt9AYi5VNxkWGrYt9M9EQynWzw/H64r8DlENtDrD31DsEw8lmE3yuwZF/mg0dhxm74jcdNehCPc3KPKX5u9BWWhdqmW5w7KzFTQTd3ODIj+Wankqg92T0evyYaK+mGrteF1jx6tENdTFGf2W4nERMUnnpb6BxFySb4tqqJVJDseuNBRq7fw9d12R/1hUI93XIMPrxMQkzGTwXOwPH4eSrBLXUDc1yHDOsw0mZX+Dk/PNaJIwyq7Uzx58bwah15GM3c4GJ+epJJeJaug9+YGGRT6XanMLGKtLkpxocHJ+Q1QDXZT6B2+W8DJRG1O1eqo7Me8X1QesSHJ1qhmBpxdZ5BpyMFarkjzXcJg5K65sSbVoZ3/qN4+sOy4UZzNniKC1h5JcW/Mz76ZaePHqgH8b9TBppqPvj+t33v/9M1O9Zlwz/3Vdkq3pbprvf5OcNf8VltV3Wl6RHEs/Djn9mvNqYum+FMsjJ+n3IlDoy21rqh1T5Dc5z4tAoS+n9ak6mtgsYLL+IILmPIxbnNlUq6W2i2Ki3k3y8ST/FoUr+nK4S5EX4S+KXKEvl5uS3CiGIngQp9CXxeWp5mBTBg/iFHrntqSaFGPHlHJ4ELdIHsaNtibJM7HmuTTnJHlDDK7oXWVzUJEX51VFrtC7dEeSK8Vg2P5R4L5z+JD9aJKvi6I4fxQBAAAAAAAAAAAAAAAAAAAAAAAAAAAAAAAAAAAAAAAAAAAAAAAAAAAAAAAAAAAAAAAAAAAAAAAAAAAAAAAAAADAGPwPMlCJqKHQRpsAAAAASUVORK5CYII=;" vertex="1" parent="1">
          <mxGeometry x="315" y="285" width="30" height="30" as="geometry" />
        </mxCell>
        <mxCell id="N3Wy1tn6dpJryKBiZyQi-30" value="" style="ellipse;whiteSpace=wrap;html=1;aspect=fixed;" vertex="1" parent="1">
          <mxGeometry x="310" y="340" width="40" height="40" as="geometry" />
        </mxCell>
        <mxCell id="N3Wy1tn6dpJryKBiZyQi-31" value="" style="shape=image;verticalLabelPosition=bottom;labelBackgroundColor=default;verticalAlign=top;aspect=fixed;imageAspect=0;image=data:image/png,iVBORw0KGgoAAAANSUhEUgAAAPoAAAD6CAYAAACI7Fo9AAAIZklEQVR42u3dcaheZR0H8K+3cRlzjjVsLlhLxhCRWEPEP8SWhISIyAiREIkxxEZYicgaEcLwDwkb+0NExCSkZEhJlJiFlJiEiJgtsSG2wkaamtiSNdaYtz/OldT7vu85955z3/c5vp8PHC7c3XsHX87vPc8553l+TwIAAAAAAAAAAAAAAAAAAAAAAAAAAAAAAAAAAAAAAAAAAAAAAAAAAAAAAAAAAAAAAAAAAAAAAAAAADA1zhBBrd1JPpVkZsTPzHT0/XH9Tt///+eTfM+pSZeuTDLnKOp42mm5ODMiqPWLJD8SQ1HWisDQfTmcneTFJOtFUYQ3kpwjBlf0rv0zyTfF4Iruij4dHklylRiKcGaS/4jBFX05fDXJv8RQhHUiUOjL5dUk3xKD4buh+3R4IsllLf/G95P88EMfuHVfF/OzXf7uUv/GbJJPJtmQ6kHmtg4L9PNJfutUZDltTnI87d4FH0uyccpyWzH/Abk/ySst89vhNGQcbk37iR+PTHF+s0luSfLWErPb6RRkXFenZzso9uumPMd1Se5fQm63OAUZl88kOdmy0N9MNSFn2u1JcnoRud0uMsZpXwdX9YNiTJJcu4gPzrvExbjvNV/ooNhNxKnc2DCvB0XFuF28yGHnoOPvSdaIMklyX4O8HhUTk3Cgg6v6fWJMkqxM/YNOS1WZiFVJjnRQ7F8QZZJqcs2oUdJLImJSLu+g0I/Mf2iQPDAip9fFQ+n3l3XHATEmqWYODpuBeFI8TNLaVA/W2hT66VQP+EjuGJHTavEwSTs6uKq/mOrV3bTbNOJefaN4mLSHOij2fWJMUr1KG5TPVtEwaeuz9AUb778PdTIPHyFtFw0l+EoHV/VnUy2gmWYrhjz3sFSVYjzWQbHvEWPuGZDLLrFQik1J3mlZ6MeTbJnyHK+OpaoU7msdXNWfzHT3+FudhSvbLFWlKDNJnuqg2HdPeY5PfCiPu51alOa8JCeiz1wbNyd5LVW/uSOpes9BcfZ2cFV/TIxQthWptvxtW+zXixLKti3JqbTvM2fDRxr7mAjG7h+pGit8rsXfWJXk00l+Ik4o18okhzsYwpsZBoW7NN30mbMHGYbuBftbkk+k3brzs+bv1X8uTijX6rTfg2wuVQsroGBXdFDof41uKxi6F+3PqXZn/WyLv7F2vtB/KU4o19mpupq27TN3iSihbNd0MIQ/nOrVHRi6F+pPqWbNnd9yZDCT5DfihHJtSPJ2y6v6qfkPDKBguzoYwj8XfeageL/uoNj3ihHKtjnDtyJqepxoeb8PjMHNHVzVn8p095mD4s0keaaDYr9JlFC2C7Kw8+lij3eSnCtKKNttHVzVfyVGKNtskkMdFPtOUULZLk77PnNvpZqQAxTszg6u6g+LEcq2KsnLHRT7NaKEsl2W9n3mXkuyTpRQtns7uKo/IEYo29okRzso9itECWW7uoNCfyX6zEHxDnZQ7LYdhsKtT7UHW9s+c5eKEsp2XQdX9ZeizxwU79EOiv27YoSybUxyrGWh/1SMUL7dLYr8xSRrRAjlm0ny5BKK/O0k54kP+mNLqj5xi3nibtIM9NCeRRT6HnFBP61I9bqsrsgfFBX011WpX932XKolr0APXZD612yvJ9kkKuindalvSnEyyXZRQX/vy5ts4bRbVNBfdzUo8nvFBP11Y5ptyzQrKuin7anfxeVoquWsQA+dm/q16CeSXCQq6KfVSV5oMGS/XlTQTzOplpTWFfmdooL+uj3NNlS0Jzr01JcbFPnLsTkD9NaFSY7XFPmxVNNggR7akPoNG04n2SEq6KeVSZ5uMGS/TVTQXz+IrZDhI+3WBkX+QmyrBL11ReobSLyVZLOooJ/OT9WddVSRn0pyuaign5o0kJhLcouooJ9WJHm8QZE/ICrorwMNivzZ2BDxPRek2jr6/ce5YqFkNzQo8tdS7bPG4A/G0/EGgoJdmvoGEieTXCKqD9zmvJ6F2z9DkTYNOGEHHTeI6gN2DMjooFgo0eokhxoU+d2iWuCx2GKKnni4QZE/OT9M5f82Z/BkIvMKKM6+BkX+SpKzRbXA/iF5yYqiXJP66a3Hk2wT1QJrM3jbqaOioSTbUt9AYi5VNxkWGrYt9M9EQynWzw/H64r8DlENtDrD31DsEw8lmE3yuwZF/mg0dhxm74jcdNehCPc3KPKX5u9BWWhdqmW5w7KzFTQTd3ODIj+Wankqg92T0evyYaK+mGrteF1jx6tENdTFGf2W4nERMUnnpb6BxFySb4tqqJVJDseuNBRq7fw9d12R/1hUI93XIMPrxMQkzGTwXOwPH4eSrBLXUDc1yHDOsw0mZX+Dk/PNaJIwyq7Uzx58bwah15GM3c4GJ+epJJeJaug9+YGGRT6XanMLGKtLkpxocHJ+Q1QDXZT6B2+W8DJRG1O1eqo7Me8X1QesSHJ1qhmBpxdZ5BpyMFarkjzXcJg5K65sSbVoZ3/qN4+sOy4UZzNniKC1h5JcW/Mz76ZaePHqgH8b9TBppqPvj+t33v/9M1O9Zlwz/3Vdkq3pbprvf5OcNf8VltV3Wl6RHEs/Djn9mvNqYum+FMsjJ+n3IlDoy21rqh1T5Dc5z4tAoS+n9ak6mtgsYLL+IILmPIxbnNlUq6W2i2Ki3k3y8ST/FoUr+nK4S5EX4S+KXKEvl5uS3CiGIngQp9CXxeWp5mBTBg/iFHrntqSaFGPHlHJ4ELdIHsaNtibJM7HmuTTnJHlDDK7oXWVzUJEX51VFrtC7dEeSK8Vg2P5R4L5z+JD9aJKvi6I4fxQBAAAAAAAAAAAAAAAAAAAAAAAAAAAAAAAAAAAAAAAAAAAAAAAAAAAAAAAAAAAAAAAAAAAAAAAAAAAAAAAAAADAGPwPMlCJqKHQRpsAAAAASUVORK5CYII=;" vertex="1" parent="1">
          <mxGeometry x="315" y="345" width="30" height="30" as="geometry" />
        </mxCell>
        <mxCell id="N3Wy1tn6dpJryKBiZyQi-34" value="" style="ellipse;whiteSpace=wrap;html=1;aspect=fixed;" vertex="1" parent="1">
          <mxGeometry x="310" y="440" width="40" height="40" as="geometry" />
        </mxCell>
        <mxCell id="N3Wy1tn6dpJryKBiZyQi-35" value="" style="shape=image;verticalLabelPosition=bottom;labelBackgroundColor=default;verticalAlign=top;aspect=fixed;imageAspect=0;image=data:image/png,iVBORw0KGgoAAAANSUhEUgAAAPoAAAD6CAYAAACI7Fo9AAAIZklEQVR42u3dcaheZR0H8K+3cRlzjjVsLlhLxhCRWEPEP8SWhISIyAiREIkxxEZYicgaEcLwDwkb+0NExCSkZEhJlJiFlJiEiJgtsSG2wkaamtiSNdaYtz/OldT7vu85955z3/c5vp8PHC7c3XsHX87vPc8553l+TwIAAAAAAAAAAAAAAAAAAAAAAAAAAAAAAAAAAAAAAAAAAAAAAAAAAAAAAAAAAAAAAAAAAAAAAAAAADA1zhBBrd1JPpVkZsTPzHT0/XH9Tt///+eTfM+pSZeuTDLnKOp42mm5ODMiqPWLJD8SQ1HWisDQfTmcneTFJOtFUYQ3kpwjBlf0rv0zyTfF4Iruij4dHklylRiKcGaS/4jBFX05fDXJv8RQhHUiUOjL5dUk3xKD4buh+3R4IsllLf/G95P88EMfuHVfF/OzXf7uUv/GbJJPJtmQ6kHmtg4L9PNJfutUZDltTnI87d4FH0uyccpyWzH/Abk/ySst89vhNGQcbk37iR+PTHF+s0luSfLWErPb6RRkXFenZzso9uumPMd1Se5fQm63OAUZl88kOdmy0N9MNSFn2u1JcnoRud0uMsZpXwdX9YNiTJJcu4gPzrvExbjvNV/ooNhNxKnc2DCvB0XFuF28yGHnoOPvSdaIMklyX4O8HhUTk3Cgg6v6fWJMkqxM/YNOS1WZiFVJjnRQ7F8QZZJqcs2oUdJLImJSLu+g0I/Mf2iQPDAip9fFQ+n3l3XHATEmqWYODpuBeFI8TNLaVA/W2hT66VQP+EjuGJHTavEwSTs6uKq/mOrV3bTbNOJefaN4mLSHOij2fWJMUr1KG5TPVtEwaeuz9AUb778PdTIPHyFtFw0l+EoHV/VnUy2gmWYrhjz3sFSVYjzWQbHvEWPuGZDLLrFQik1J3mlZ6MeTbJnyHK+OpaoU7msdXNWfzHT3+FudhSvbLFWlKDNJnuqg2HdPeY5PfCiPu51alOa8JCeiz1wbNyd5LVW/uSOpes9BcfZ2cFV/TIxQthWptvxtW+zXixLKti3JqbTvM2fDRxr7mAjG7h+pGit8rsXfWJXk00l+Ik4o18okhzsYwpsZBoW7NN30mbMHGYbuBftbkk+k3brzs+bv1X8uTijX6rTfg2wuVQsroGBXdFDof41uKxi6F+3PqXZn/WyLv7F2vtB/KU4o19mpupq27TN3iSihbNd0MIQ/nOrVHRi6F+pPqWbNnd9yZDCT5DfihHJtSPJ2y6v6qfkPDKBguzoYwj8XfeageL/uoNj3ihHKtjnDtyJqepxoeb8PjMHNHVzVn8p095mD4s0keaaDYr9JlFC2C7Kw8+lij3eSnCtKKNttHVzVfyVGKNtskkMdFPtOUULZLk77PnNvpZqQAxTszg6u6g+LEcq2KsnLHRT7NaKEsl2W9n3mXkuyTpRQtns7uKo/IEYo29okRzso9itECWW7uoNCfyX6zEHxDnZQ7LYdhsKtT7UHW9s+c5eKEsp2XQdX9ZeizxwU79EOiv27YoSybUxyrGWh/1SMUL7dLYr8xSRrRAjlm0ny5BKK/O0k54kP+mNLqj5xi3nibtIM9NCeRRT6HnFBP61I9bqsrsgfFBX011WpX932XKolr0APXZD612yvJ9kkKuindalvSnEyyXZRQX/vy5ts4bRbVNBfdzUo8nvFBP11Y5ptyzQrKuin7anfxeVoquWsQA+dm/q16CeSXCQq6KfVSV5oMGS/XlTQTzOplpTWFfmdooL+uj3NNlS0Jzr01JcbFPnLsTkD9NaFSY7XFPmxVNNggR7akPoNG04n2SEq6KeVSZ5uMGS/TVTQXz+IrZDhI+3WBkX+QmyrBL11ReobSLyVZLOooJ/OT9WddVSRn0pyuaign5o0kJhLcouooJ9WJHm8QZE/ICrorwMNivzZ2BDxPRek2jr6/ce5YqFkNzQo8tdS7bPG4A/G0/EGgoJdmvoGEieTXCKqD9zmvJ6F2z9DkTYNOGEHHTeI6gN2DMjooFgo0eokhxoU+d2iWuCx2GKKnni4QZE/OT9M5f82Z/BkIvMKKM6+BkX+SpKzRbXA/iF5yYqiXJP66a3Hk2wT1QJrM3jbqaOioSTbUt9AYi5VNxkWGrYt9M9EQynWzw/H64r8DlENtDrD31DsEw8lmE3yuwZF/mg0dhxm74jcdNehCPc3KPKX5u9BWWhdqmW5w7KzFTQTd3ODIj+Wankqg92T0evyYaK+mGrteF1jx6tENdTFGf2W4nERMUnnpb6BxFySb4tqqJVJDseuNBRq7fw9d12R/1hUI93XIMPrxMQkzGTwXOwPH4eSrBLXUDc1yHDOsw0mZX+Dk/PNaJIwyq7Uzx58bwah15GM3c4GJ+epJJeJaug9+YGGRT6XanMLGKtLkpxocHJ+Q1QDXZT6B2+W8DJRG1O1eqo7Me8X1QesSHJ1qhmBpxdZ5BpyMFarkjzXcJg5K65sSbVoZ3/qN4+sOy4UZzNniKC1h5JcW/Mz76ZaePHqgH8b9TBppqPvj+t33v/9M1O9Zlwz/3Vdkq3pbprvf5OcNf8VltV3Wl6RHEs/Djn9mvNqYum+FMsjJ+n3IlDoy21rqh1T5Dc5z4tAoS+n9ak6mtgsYLL+IILmPIxbnNlUq6W2i2Ki3k3y8ST/FoUr+nK4S5EX4S+KXKEvl5uS3CiGIngQp9CXxeWp5mBTBg/iFHrntqSaFGPHlHJ4ELdIHsaNtibJM7HmuTTnJHlDDK7oXWVzUJEX51VFrtC7dEeSK8Vg2P5R4L5z+JD9aJKvi6I4fxQBAAAAAAAAAAAAAAAAAAAAAAAAAAAAAAAAAAAAAAAAAAAAAAAAAAAAAAAAAAAAAAAAAAAAAAAAAAAAAAAAAADAGPwPMlCJqKHQRpsAAAAASUVORK5CYII=;" vertex="1" parent="1">
          <mxGeometry x="315" y="445" width="30" height="30" as="geometry" />
        </mxCell>
        <mxCell id="N3Wy1tn6dpJryKBiZyQi-36" value="" style="endArrow=none;dashed=1;html=1;dashPattern=1 3;strokeWidth=2;rounded=0;" edge="1" parent="1">
          <mxGeometry width="50" height="50" relative="1" as="geometry">
            <mxPoint x="329.86" y="420" as="sourcePoint" />
            <mxPoint x="329.86" y="390" as="targetPoint" />
          </mxGeometry>
        </mxCell>
        <mxCell id="N3Wy1tn6dpJryKBiZyQi-37" value="" style="endArrow=classic;html=1;rounded=0;entryX=0;entryY=0.5;entryDx=0;entryDy=0;exitX=1;exitY=0.5;exitDx=0;exitDy=0;" edge="1" parent="1" source="N3Wy1tn6dpJryKBiZyQi-19" target="N3Wy1tn6dpJryKBiZyQi-22">
          <mxGeometry width="50" height="50" relative="1" as="geometry">
            <mxPoint x="230" y="375" as="sourcePoint" />
            <mxPoint x="280" y="325" as="targetPoint" />
          </mxGeometry>
        </mxCell>
        <mxCell id="N3Wy1tn6dpJryKBiZyQi-38" value="" style="endArrow=classic;html=1;rounded=0;entryX=0;entryY=0.5;entryDx=0;entryDy=0;exitX=1;exitY=0.5;exitDx=0;exitDy=0;" edge="1" parent="1" source="N3Wy1tn6dpJryKBiZyQi-19" target="N3Wy1tn6dpJryKBiZyQi-30">
          <mxGeometry width="50" height="50" relative="1" as="geometry">
            <mxPoint x="240" y="385" as="sourcePoint" />
            <mxPoint x="320" y="310" as="targetPoint" />
          </mxGeometry>
        </mxCell>
        <mxCell id="N3Wy1tn6dpJryKBiZyQi-39" value="" style="endArrow=classic;html=1;rounded=0;entryX=0;entryY=0.5;entryDx=0;entryDy=0;exitX=1;exitY=0.5;exitDx=0;exitDy=0;" edge="1" parent="1" source="N3Wy1tn6dpJryKBiZyQi-19" target="N3Wy1tn6dpJryKBiZyQi-34">
          <mxGeometry width="50" height="50" relative="1" as="geometry">
            <mxPoint x="250" y="395" as="sourcePoint" />
            <mxPoint x="330" y="320" as="targetPoint" />
          </mxGeometry>
        </mxCell>
        <mxCell id="N3Wy1tn6dpJryKBiZyQi-41" value="&lt;font style=&quot;font-size: 9px;&quot;&gt;1/(1+e&lt;sup&gt;-x&lt;/sup&gt;)&lt;/font&gt;" style="whiteSpace=wrap;html=1;aspect=fixed;" vertex="1" parent="1">
          <mxGeometry x="410" y="340" width="40" height="40" as="geometry" />
        </mxCell>
        <mxCell id="N3Wy1tn6dpJryKBiZyQi-42" value="" style="edgeStyle=orthogonalEdgeStyle;rounded=0;orthogonalLoop=1;jettySize=auto;html=1;" edge="1" parent="1" target="N3Wy1tn6dpJryKBiZyQi-41">
          <mxGeometry relative="1" as="geometry">
            <mxPoint x="350" y="360" as="sourcePoint" />
          </mxGeometry>
        </mxCell>
        <mxCell id="N3Wy1tn6dpJryKBiZyQi-43" value="&lt;font style=&quot;font-size: 9px;&quot;&gt;1/(1+e&lt;sup&gt;-x&lt;/sup&gt;)&lt;/font&gt;" style="whiteSpace=wrap;html=1;aspect=fixed;" vertex="1" parent="1">
          <mxGeometry x="410" y="440" width="40" height="40" as="geometry" />
        </mxCell>
        <mxCell id="N3Wy1tn6dpJryKBiZyQi-44" value="" style="edgeStyle=orthogonalEdgeStyle;rounded=0;orthogonalLoop=1;jettySize=auto;html=1;" edge="1" parent="1" target="N3Wy1tn6dpJryKBiZyQi-43">
          <mxGeometry relative="1" as="geometry">
            <mxPoint x="350" y="460" as="sourcePoint" />
          </mxGeometry>
        </mxCell>
        <mxCell id="N3Wy1tn6dpJryKBiZyQi-45" value="" style="endArrow=classic;html=1;rounded=0;entryX=0;entryY=0.5;entryDx=0;entryDy=0;exitX=1;exitY=0.5;exitDx=0;exitDy=0;" edge="1" parent="1">
          <mxGeometry width="50" height="50" relative="1" as="geometry">
            <mxPoint x="450" y="300" as="sourcePoint" />
            <mxPoint x="550.0000000000035" y="380" as="targetPoint" />
          </mxGeometry>
        </mxCell>
        <mxCell id="N3Wy1tn6dpJryKBiZyQi-46" value="" style="ellipse;whiteSpace=wrap;html=1;aspect=fixed;" vertex="1" parent="1">
          <mxGeometry x="550" y="360" width="40" height="40" as="geometry" />
        </mxCell>
        <mxCell id="N3Wy1tn6dpJryKBiZyQi-47" value="" style="shape=image;verticalLabelPosition=bottom;labelBackgroundColor=default;verticalAlign=top;aspect=fixed;imageAspect=0;image=data:image/png,iVBORw0KGgoAAAANSUhEUgAAAPoAAAD6CAYAAACI7Fo9AAAIZklEQVR42u3dcaheZR0H8K+3cRlzjjVsLlhLxhCRWEPEP8SWhISIyAiREIkxxEZYicgaEcLwDwkb+0NExCSkZEhJlJiFlJiEiJgtsSG2wkaamtiSNdaYtz/OldT7vu85955z3/c5vp8PHC7c3XsHX87vPc8553l+TwIAAAAAAAAAAAAAAAAAAAAAAAAAAAAAAAAAAAAAAAAAAAAAAAAAAAAAAAAAAAAAAAAAAAAAAAAAADA1zhBBrd1JPpVkZsTPzHT0/XH9Tt///+eTfM+pSZeuTDLnKOp42mm5ODMiqPWLJD8SQ1HWisDQfTmcneTFJOtFUYQ3kpwjBlf0rv0zyTfF4Iruij4dHklylRiKcGaS/4jBFX05fDXJv8RQhHUiUOjL5dUk3xKD4buh+3R4IsllLf/G95P88EMfuHVfF/OzXf7uUv/GbJJPJtmQ6kHmtg4L9PNJfutUZDltTnI87d4FH0uyccpyWzH/Abk/ySst89vhNGQcbk37iR+PTHF+s0luSfLWErPb6RRkXFenZzso9uumPMd1Se5fQm63OAUZl88kOdmy0N9MNSFn2u1JcnoRud0uMsZpXwdX9YNiTJJcu4gPzrvExbjvNV/ooNhNxKnc2DCvB0XFuF28yGHnoOPvSdaIMklyX4O8HhUTk3Cgg6v6fWJMkqxM/YNOS1WZiFVJjnRQ7F8QZZJqcs2oUdJLImJSLu+g0I/Mf2iQPDAip9fFQ+n3l3XHATEmqWYODpuBeFI8TNLaVA/W2hT66VQP+EjuGJHTavEwSTs6uKq/mOrV3bTbNOJefaN4mLSHOij2fWJMUr1KG5TPVtEwaeuz9AUb778PdTIPHyFtFw0l+EoHV/VnUy2gmWYrhjz3sFSVYjzWQbHvEWPuGZDLLrFQik1J3mlZ6MeTbJnyHK+OpaoU7msdXNWfzHT3+FudhSvbLFWlKDNJnuqg2HdPeY5PfCiPu51alOa8JCeiz1wbNyd5LVW/uSOpes9BcfZ2cFV/TIxQthWptvxtW+zXixLKti3JqbTvM2fDRxr7mAjG7h+pGit8rsXfWJXk00l+Ik4o18okhzsYwpsZBoW7NN30mbMHGYbuBftbkk+k3brzs+bv1X8uTijX6rTfg2wuVQsroGBXdFDof41uKxi6F+3PqXZn/WyLv7F2vtB/KU4o19mpupq27TN3iSihbNd0MIQ/nOrVHRi6F+pPqWbNnd9yZDCT5DfihHJtSPJ2y6v6qfkPDKBguzoYwj8XfeageL/uoNj3ihHKtjnDtyJqepxoeb8PjMHNHVzVn8p095mD4s0keaaDYr9JlFC2C7Kw8+lij3eSnCtKKNttHVzVfyVGKNtskkMdFPtOUULZLk77PnNvpZqQAxTszg6u6g+LEcq2KsnLHRT7NaKEsl2W9n3mXkuyTpRQtns7uKo/IEYo29okRzso9itECWW7uoNCfyX6zEHxDnZQ7LYdhsKtT7UHW9s+c5eKEsp2XQdX9ZeizxwU79EOiv27YoSybUxyrGWh/1SMUL7dLYr8xSRrRAjlm0ny5BKK/O0k54kP+mNLqj5xi3nibtIM9NCeRRT6HnFBP61I9bqsrsgfFBX011WpX932XKolr0APXZD612yvJ9kkKuindalvSnEyyXZRQX/vy5ts4bRbVNBfdzUo8nvFBP11Y5ptyzQrKuin7anfxeVoquWsQA+dm/q16CeSXCQq6KfVSV5oMGS/XlTQTzOplpTWFfmdooL+uj3NNlS0Jzr01JcbFPnLsTkD9NaFSY7XFPmxVNNggR7akPoNG04n2SEq6KeVSZ5uMGS/TVTQXz+IrZDhI+3WBkX+QmyrBL11ReobSLyVZLOooJ/OT9WddVSRn0pyuaign5o0kJhLcouooJ9WJHm8QZE/ICrorwMNivzZ2BDxPRek2jr6/ce5YqFkNzQo8tdS7bPG4A/G0/EGgoJdmvoGEieTXCKqD9zmvJ6F2z9DkTYNOGEHHTeI6gN2DMjooFgo0eokhxoU+d2iWuCx2GKKnni4QZE/OT9M5f82Z/BkIvMKKM6+BkX+SpKzRbXA/iF5yYqiXJP66a3Hk2wT1QJrM3jbqaOioSTbUt9AYi5VNxkWGrYt9M9EQynWzw/H64r8DlENtDrD31DsEw8lmE3yuwZF/mg0dhxm74jcdNehCPc3KPKX5u9BWWhdqmW5w7KzFTQTd3ODIj+Wankqg92T0evyYaK+mGrteF1jx6tENdTFGf2W4nERMUnnpb6BxFySb4tqqJVJDseuNBRq7fw9d12R/1hUI93XIMPrxMQkzGTwXOwPH4eSrBLXUDc1yHDOsw0mZX+Dk/PNaJIwyq7Uzx58bwah15GM3c4GJ+epJJeJaug9+YGGRT6XanMLGKtLkpxocHJ+Q1QDXZT6B2+W8DJRG1O1eqo7Me8X1QesSHJ1qhmBpxdZ5BpyMFarkjzXcJg5K65sSbVoZ3/qN4+sOy4UZzNniKC1h5JcW/Mz76ZaePHqgH8b9TBppqPvj+t33v/9M1O9Zlwz/3Vdkq3pbprvf5OcNf8VltV3Wl6RHEs/Djn9mvNqYum+FMsjJ+n3IlDoy21rqh1T5Dc5z4tAoS+n9ak6mtgsYLL+IILmPIxbnNlUq6W2i2Ki3k3y8ST/FoUr+nK4S5EX4S+KXKEvl5uS3CiGIngQp9CXxeWp5mBTBg/iFHrntqSaFGPHlHJ4ELdIHsaNtibJM7HmuTTnJHlDDK7oXWVzUJEX51VFrtC7dEeSK8Vg2P5R4L5z+JD9aJKvi6I4fxQBAAAAAAAAAAAAAAAAAAAAAAAAAAAAAAAAAAAAAAAAAAAAAAAAAAAAAAAAAAAAAAAAAAAAAAAAAAAAAAAAAADAGPwPMlCJqKHQRpsAAAAASUVORK5CYII=;" vertex="1" parent="1">
          <mxGeometry x="555" y="365" width="30" height="30" as="geometry" />
        </mxCell>
        <mxCell id="N3Wy1tn6dpJryKBiZyQi-48" value="" style="endArrow=classic;html=1;rounded=0;entryX=0;entryY=0.5;entryDx=0;entryDy=0;exitX=1;exitY=0.5;exitDx=0;exitDy=0;" edge="1" parent="1" target="N3Wy1tn6dpJryKBiZyQi-46">
          <mxGeometry width="50" height="50" relative="1" as="geometry">
            <mxPoint x="450" y="360" as="sourcePoint" />
            <mxPoint x="550.0000000000035" y="440" as="targetPoint" />
          </mxGeometry>
        </mxCell>
        <mxCell id="N3Wy1tn6dpJryKBiZyQi-49" value="" style="endArrow=classic;html=1;rounded=0;entryX=0;entryY=0.5;entryDx=0;entryDy=0;exitX=1;exitY=0.5;exitDx=0;exitDy=0;" edge="1" parent="1" source="N3Wy1tn6dpJryKBiZyQi-43" target="N3Wy1tn6dpJryKBiZyQi-46">
          <mxGeometry width="50" height="50" relative="1" as="geometry">
            <mxPoint x="460" y="370" as="sourcePoint" />
            <mxPoint x="560" y="390" as="targetPoint" />
          </mxGeometry>
        </mxCell>
        <mxCell id="N3Wy1tn6dpJryKBiZyQi-50" value="&lt;span style=&quot;font-size: 9px;&quot;&gt;f(x) = x&lt;/span&gt;" style="whiteSpace=wrap;html=1;aspect=fixed;" vertex="1" parent="1">
          <mxGeometry x="650" y="360" width="40" height="40" as="geometry" />
        </mxCell>
        <mxCell id="N3Wy1tn6dpJryKBiZyQi-51" value="" style="edgeStyle=orthogonalEdgeStyle;rounded=0;orthogonalLoop=1;jettySize=auto;html=1;" edge="1" parent="1" target="N3Wy1tn6dpJryKBiZyQi-50">
          <mxGeometry relative="1" as="geometry">
            <mxPoint x="590" y="380" as="sourcePoint" />
          </mxGeometry>
        </mxCell>
        <mxCell id="N3Wy1tn6dpJryKBiZyQi-53" style="edgeStyle=orthogonalEdgeStyle;rounded=0;orthogonalLoop=1;jettySize=auto;html=1;entryX=0.5;entryY=0;entryDx=0;entryDy=0;" edge="1" parent="1" source="N3Wy1tn6dpJryKBiZyQi-52" target="N3Wy1tn6dpJryKBiZyQi-46">
          <mxGeometry relative="1" as="geometry" />
        </mxCell>
        <mxCell id="N3Wy1tn6dpJryKBiZyQi-52" value="+1" style="ellipse;whiteSpace=wrap;html=1;aspect=fixed;" vertex="1" parent="1">
          <mxGeometry x="550" y="280" width="40" height="40" as="geometry" />
        </mxCell>
        <mxCell id="N3Wy1tn6dpJryKBiZyQi-54" value="+1" style="ellipse;whiteSpace=wrap;html=1;aspect=fixed;" vertex="1" parent="1">
          <mxGeometry x="190" y="420" width="40" height="40" as="geometry" />
        </mxCell>
        <mxCell id="N3Wy1tn6dpJryKBiZyQi-55" value="" style="endArrow=classic;html=1;rounded=0;entryX=0;entryY=0.5;entryDx=0;entryDy=0;exitX=1;exitY=0.5;exitDx=0;exitDy=0;" edge="1" parent="1" target="N3Wy1tn6dpJryKBiZyQi-22">
          <mxGeometry width="50" height="50" relative="1" as="geometry">
            <mxPoint x="230" y="440" as="sourcePoint" />
            <mxPoint x="310" y="420" as="targetPoint" />
          </mxGeometry>
        </mxCell>
        <mxCell id="N3Wy1tn6dpJryKBiZyQi-56" value="" style="endArrow=classic;html=1;rounded=0;entryX=0;entryY=0.5;entryDx=0;entryDy=0;exitX=1;exitY=0.5;exitDx=0;exitDy=0;" edge="1" parent="1" source="N3Wy1tn6dpJryKBiZyQi-54" target="N3Wy1tn6dpJryKBiZyQi-30">
          <mxGeometry width="50" height="50" relative="1" as="geometry">
            <mxPoint x="240" y="450" as="sourcePoint" />
            <mxPoint x="320" y="310" as="targetPoint" />
          </mxGeometry>
        </mxCell>
        <mxCell id="N3Wy1tn6dpJryKBiZyQi-57" value="" style="endArrow=classic;html=1;rounded=0;entryX=0;entryY=0.5;entryDx=0;entryDy=0;exitX=1;exitY=0.5;exitDx=0;exitDy=0;" edge="1" parent="1" source="N3Wy1tn6dpJryKBiZyQi-54" target="N3Wy1tn6dpJryKBiZyQi-34">
          <mxGeometry width="50" height="50" relative="1" as="geometry">
            <mxPoint x="240" y="450" as="sourcePoint" />
            <mxPoint x="320" y="370" as="targetPoint" />
          </mxGeometry>
        </mxCell>
        <mxCell id="N3Wy1tn6dpJryKBiZyQi-58" value="" style="edgeStyle=orthogonalEdgeStyle;rounded=0;orthogonalLoop=1;jettySize=auto;html=1;" edge="1" parent="1">
          <mxGeometry relative="1" as="geometry">
            <mxPoint x="690" y="379.76" as="sourcePoint" />
            <mxPoint x="740" y="379.76" as="targetPoint" />
          </mxGeometry>
        </mxCell>
        <mxCell id="N3Wy1tn6dpJryKBiZyQi-59" value="y&lt;font size=&quot;1&quot;&gt;&lt;sup&gt;pred&lt;/sup&gt;&lt;/font&gt;" style="ellipse;whiteSpace=wrap;html=1;aspect=fixed;" vertex="1" parent="1">
          <mxGeometry x="740" y="360" width="40" height="40" as="geometry" />
        </mxCell>
        <mxCell id="N3Wy1tn6dpJryKBiZyQi-60" value="a) ANN with no hidden layer" style="text;html=1;align=center;verticalAlign=middle;whiteSpace=wrap;rounded=0;" vertex="1" parent="1">
          <mxGeometry x="200" y="190" width="160" height="30" as="geometry" />
        </mxCell>
        <mxCell id="N3Wy1tn6dpJryKBiZyQi-61" value="&lt;span style=&quot;caret-color: rgb(0, 0, 0); color: rgb(0, 0, 0); font-family: Helvetica; font-size: 12px; font-style: normal; font-variant-caps: normal; font-weight: 400; letter-spacing: normal; orphans: auto; text-align: center; text-indent: 0px; text-transform: none; white-space: normal; widows: auto; word-spacing: 0px; -webkit-text-stroke-width: 0px; background-color: rgb(251, 251, 251); text-decoration: none; display: inline !important; float: none;&quot;&gt;b) ANN with a single hidden layer&lt;/span&gt;" style="text;whiteSpace=wrap;html=1;" vertex="1" parent="1">
          <mxGeometry x="200" y="520" width="180" height="40" as="geometry" />
        </mxCell>
      </root>
    </mxGraphModel>
  </diagram>
</mxfile>
